<?xml version="1.0" encoding="UTF-8" standalone="no"?>
<svg
   xmlns:dc="http://purl.org/dc/elements/1.1/"
   xmlns:cc="http://creativecommons.org/ns#"
   xmlns:rdf="http://www.w3.org/1999/02/22-rdf-syntax-ns#"
   xmlns:svg="http://www.w3.org/2000/svg"
   xmlns="http://www.w3.org/2000/svg"
   xmlns:sodipodi="http://sodipodi.sourceforge.net/DTD/sodipodi-0.dtd"
   xmlns:inkscape="http://www.inkscape.org/namespaces/inkscape"
   viewBox="0 0 32 32"
   version="1.1"
   x="0px"
   y="0px"
   id="svg6371"
   sodipodi:docname="tcp_port.svg"
   width="32"
   height="32"
   inkscape:version="0.92.4 (5da689c313, 2019-01-14)">
  <metadata
     id="metadata6377">
    <rdf:RDF>
      <cc:Work
         rdf:about="">
        <dc:format>image/svg+xml</dc:format>
        <dc:type
           rdf:resource="http://purl.org/dc/dcmitype/StillImage" />
        <dc:title />
      </cc:Work>
    </rdf:RDF>
  </metadata>
  <defs
     id="defs6375" />
  <sodipodi:namedview
     pagecolor="#ffffff"
     bordercolor="#666666"
     borderopacity="1"
     objecttolerance="10"
     gridtolerance="10"
     guidetolerance="10"
     inkscape:pageopacity="0"
     inkscape:pageshadow="2"
     inkscape:window-width="1159"
     inkscape:window-height="738"
     id="namedview6373"
     showgrid="false"
     inkscape:zoom="5.9"
     inkscape:cx="-11.542373"
     inkscape:cy="-0.33898305"
     inkscape:window-x="164"
     inkscape:window-y="74"
     inkscape:window-maximized="0"
     inkscape:current-layer="svg6371" />
  <path
     inkscape:connector-curvature="0"
     id="path6361"
     d="m 16.084745,2.1356893 c -4.101483,0 -7.4058176,2.4021552 -7.8696151,5.4888187 C 4.7589283,7.9513149 2,10.125525 2,12.901733 c 0,3.003964 3.1867191,5.403547 7.0423728,5.403549 h 3.0181592 a 1.0060533,0.80847962 0 0 0 1.006053,-0.808479 1.0060533,0.80847962 0 0 0 -1.006053,-0.808478 H 9.0423728 c -2.8325883,-2e-6 -5.0302663,-1.698666 -5.0302663,-3.786592 0,-2.087924 2.1976784,-3.7881689 5.0302663,-3.7881689 A 1.0061538,0.80856045 0 0 0 10.048426,8.305084 c 0,-2.5122496 2.646377,-4.5524347 6.036319,-4.5524347 3.389941,0 6.036319,2.0401851 6.036319,4.5524347 a 1.0061538,0.80856045 0 0 0 1.006054,0.8084801 c 2.832588,0 5.030266,1.7002449 5.030266,3.7881689 0,2.087926 -2.197678,3.786592 -5.030266,3.786592 h -3.01816 a 1.0060533,0.80847962 0 0 0 -1.006053,0.808478 1.0060533,0.80847962 0 0 0 1.006053,0.808479 h 3.01816 c 3.855653,0 7.042372,-2.399585 7.042372,-5.403549 0,-2.776208 -2.758927,-4.9504181 -6.215129,-5.277225 C 23.490563,4.5378445 20.186228,2.1356893 16.084745,2.1356893 Z"
     style="color:#000000;font-style:normal;font-variant:normal;font-weight:normal;font-stretch:normal;font-size:medium;line-height:normal;font-family:sans-serif;font-variant-ligatures:normal;font-variant-position:normal;font-variant-caps:normal;font-variant-numeric:normal;font-variant-alternates:normal;font-feature-settings:normal;text-indent:0;text-align:start;text-decoration:none;text-decoration-line:none;text-decoration-style:solid;text-decoration-color:#000000;letter-spacing:normal;word-spacing:normal;text-transform:none;writing-mode:lr-tb;direction:ltr;text-orientation:mixed;dominant-baseline:auto;baseline-shift:baseline;text-anchor:start;white-space:normal;shape-padding:0;clip-rule:nonzero;display:inline;overflow:visible;visibility:visible;opacity:1;isolation:auto;mix-blend-mode:normal;color-interpolation:sRGB;color-interpolation-filters:linearRGB;solid-color:#000000;solid-opacity:1;vector-effect:none;fill:#000000;fill-opacity:1;fill-rule:nonzero;stroke:none;stroke-width:0.9018721;stroke-linecap:round;stroke-linejoin:round;stroke-miterlimit:4;stroke-dasharray:none;stroke-dashoffset:0;stroke-opacity:1;color-rendering:auto;image-rendering:auto;shape-rendering:auto;text-rendering:auto;enable-background:accumulate" />
  <path
     inkscape:connector-curvature="0"
     style="fill:#010101;stroke-width:0.35099608"
     d="m 16.100315,26.692172 c -1.511018,0 -2.736426,1.100156 -2.736426,2.457724 0,1.356572 1.225408,2.456395 2.736426,2.456395 1.513609,0 2.737908,-1.099823 2.737908,-2.456395 0,-1.3579 -1.224299,-2.457724 -2.737908,-2.457724 z"
     id="path6946" />
  <path
     inkscape:connector-curvature="0"
     style="fill:#010101;stroke-width:0.29243121"
     d="m 6.1847995,22.549203 c -0.1603998,0.09996 -0.2522681,0.238469 -0.2522681,0.380213 v 2.359065 c 0,0.296184 0.384144,0.53719 0.8616388,0.53719 0.4771241,0 0.8631209,-0.241006 0.8631209,-0.53719 h -0.0015 v -1.82326 h 7.6214049 v 1.898519 c 0,0.295719 0.38748,0.535573 0.863861,0.535573 0.474161,0 0.861269,-0.240086 0.861269,-0.535573 v -1.898519 h 7.619912 v 1.897825 c 0,0.296413 0.385625,0.536267 0.86312,0.536267 0.473421,0 0.859787,-0.240086 0.859787,-0.536267 v -2.4334 c 0,-0.141743 -0.09372,-0.279561 -0.252639,-0.37952 -0.160029,-0.100876 -0.382663,-0.15767 -0.607518,-0.15767 H 17.00196 V 20.66592 c 0,-0.297335 -0.387108,-0.536266 -0.861271,-0.536266 -0.476382,0 -0.863861,0.239393 -0.863861,0.536266 v 1.726536 H 6.7937998 c -0.2270788,0 -0.4489708,0.05702 -0.6090003,0.156747 z"
     id="path6948" />
  <ellipse
     style="fill:#010101;stroke-width:0.35099608"
     cx="6.7641649"
     cy="29.149233"
     id="circle6950"
     rx="2.7367964"
     ry="2.4570599" />
  <path
     inkscape:connector-curvature="0"
     style="fill:#010101;stroke-width:0.35099608"
     d="m 25.44017,26.692172 c -1.51361,0 -2.738278,1.100156 -2.738278,2.457724 0,1.356572 1.224668,2.456395 2.738278,2.456395 1.511388,0 2.736056,-1.099823 2.736056,-2.456395 7.14e-4,-1.3579 -1.224668,-2.457724 -2.736056,-2.457724 z"
     id="path6952" />
</svg>
